<?xml version="1.0" encoding="utf-8"?>
<!-- Generator: Adobe Illustrator 21.1.0, SVG Export Plug-In . SVG Version: 6.00 Build 0)  -->
<svg version="1.1" id="Layer_1" xmlns="http://www.w3.org/2000/svg" xmlns:xlink="http://www.w3.org/1999/xlink" x="0px" y="0px"
	 viewBox="0 0 50 50" style="enable-background:new 0 0 50 50;" xml:space="preserve">
<style type="text/css">
	.st0{opacity:7.000000e-02;}
	.st1{fill:none;stroke:#000000;stroke-miterlimit:10;}
</style>
<g class="st0">
	<path class="st1" d="M9.6,4C8.2,2.5,5.9,2.5,4.4,4L4,4.4C2.5,5.9,2.5,8.2,4,9.6l1.7,1.7L7,9.9L5.6,8.4c-0.8-0.8-0.8-2.1,0-2.8
		s2.1-0.8,2.8,0l5.9,5.9l1.4-1.4L9.6,4z"/>
	<path class="st1" d="M13.2,18.8c1.4,1.4,3.8,1.4,5.2,0l0.5-0.5c1.4-1.4,1.4-3.8,0-5.2l-1.7-1.7l-1.4,1.4l1.4,1.4
		c0.8,0.8,0.8,2.1,0,2.8s-2.1,0.8-2.8,0l-5.9-5.9L7,12.7L13.2,18.8z"/>
	<path class="st1" d="M18.8,9.6c1.4-1.4,1.4-3.8,0-5.2L18.3,4c-1.4-1.4-3.8-1.4-5.2,0l-1.7,1.7L12.9,7l1.4-1.4
		c0.8-0.8,2.1-0.8,2.8,0s0.8,2.1,0,2.8l-5.9,5.9l1.4,1.4L18.8,9.6z"/>
	<path class="st1" d="M4,13.2c-1.4,1.4-1.4,3.8,0,5.2l0.5,0.5c1.4,1.4,3.8,1.4,5.2,0l1.7-1.7l-1.4-1.4l-1.4,1.4
		c-0.8,0.8-2.1,0.8-2.8,0s-0.8-2.1,0-2.8l5.9-5.9L10.1,7L4,13.2z"/>
</g>
<g class="st0">
	<path class="st1" d="M34.6,4c-1.4-1.4-3.8-1.4-5.2,0L29,4.4c-1.4,1.4-1.4,3.8,0,5.2l1.7,1.7L32,9.9l-1.4-1.4
		c-0.8-0.8-0.8-2.1,0-2.8c0.8-0.8,2.1-0.8,2.8,0l5.9,5.9l1.4-1.4L34.6,4z"/>
	<path class="st1" d="M38.2,18.8c1.4,1.4,3.8,1.4,5.2,0l0.5-0.5c1.4-1.4,1.4-3.8,0-5.2l-1.7-1.7l-1.4,1.4l1.4,1.4
		c0.8,0.8,0.8,2.1,0,2.8c-0.8,0.8-2.1,0.8-2.8,0l-5.9-5.9L32,12.7L38.2,18.8z"/>
	<path class="st1" d="M43.8,9.6c1.4-1.4,1.4-3.8,0-5.2L43.3,4c-1.4-1.4-3.8-1.4-5.2,0l-1.7,1.7L37.9,7l1.4-1.4
		c0.8-0.8,2.1-0.8,2.8,0c0.8,0.8,0.8,2.1,0,2.8l-5.9,5.9l1.4,1.4L43.8,9.6z"/>
	<path class="st1" d="M29,13.2c-1.4,1.4-1.4,3.8,0,5.2l0.5,0.5c1.4,1.4,3.8,1.4,5.2,0l1.7-1.7l-1.4-1.4l-1.4,1.4
		c-0.8,0.8-2.1,0.8-2.8,0c-0.8-0.8-0.8-2.1,0-2.8l5.9-5.9L35.1,7L29,13.2z"/>
</g>
<g class="st0">
	<path class="st1" d="M22.1,29c-1.4-1.4-3.8-1.4-5.2,0l-0.5,0.5c-1.4,1.4-1.4,3.8,0,5.2l1.7,1.7l1.4-1.4l-1.4-1.4
		c-0.8-0.8-0.8-2.1,0-2.8c0.8-0.8,2.1-0.8,2.8,0l5.9,5.9l1.4-1.4L22.1,29z"/>
	<path class="st1" d="M25.7,43.8c1.4,1.4,3.8,1.4,5.2,0l0.5-0.5c1.4-1.4,1.4-3.8,0-5.2l-1.7-1.7l-1.4,1.4l1.4,1.4
		c0.8,0.8,0.8,2.1,0,2.8c-0.8,0.8-2.1,0.8-2.8,0l-5.9-5.9l-1.4,1.4L25.7,43.8z"/>
	<path class="st1" d="M31.3,34.6c1.4-1.4,1.4-3.8,0-5.2L30.9,29c-1.4-1.4-3.8-1.4-5.2,0L24,30.6l1.4,1.4l1.4-1.4
		c0.8-0.8,2.1-0.8,2.8,0c0.8,0.8,0.8,2.1,0,2.8l-5.9,5.9l1.4,1.4L31.3,34.6z"/>
	<path class="st1" d="M16.5,38.2c-1.4,1.4-1.4,3.8,0,5.2l0.5,0.5c1.4,1.4,3.8,1.4,5.2,0l1.7-1.7l-1.4-1.4l-1.4,1.4
		c-0.8,0.8-2.1,0.8-2.8,0c-0.8-0.8-0.8-2.1,0-2.8l5.9-5.9L22.6,32L16.5,38.2z"/>
</g>
<g class="st0">
	<path class="st1" d="M-2.9,29c-1.4-1.4-3.8-1.4-5.2,0l-0.5,0.5c-1.4,1.4-1.4,3.8,0,5.2l1.7,1.7l1.4-1.4l-1.4-1.4
		c-0.8-0.8-0.8-2.1,0-2.8c0.8-0.8,2.1-0.8,2.8,0l5.9,5.9l1.4-1.4L-2.9,29z"/>
	<path class="st1" d="M0.7,43.8c1.4,1.4,3.8,1.4,5.2,0l0.5-0.5c1.4-1.4,1.4-3.8,0-5.2l-1.7-1.7l-1.4,1.4l1.4,1.4
		c0.8,0.8,0.8,2.1,0,2.8s-2.1,0.8-2.8,0l-5.9-5.9l-1.4,1.4L0.7,43.8z"/>
	<path class="st1" d="M6.3,34.6c1.4-1.4,1.4-3.8,0-5.2L5.9,29c-1.4-1.4-3.8-1.4-5.2,0L-1,30.6L0.4,32l1.4-1.4c0.8-0.8,2.1-0.8,2.8,0
		c0.8,0.8,0.8,2.1,0,2.8l-5.9,5.9l1.4,1.4L6.3,34.6z"/>
	<path class="st1" d="M-8.5,38.2c-1.4,1.4-1.4,3.8,0,5.2l0.5,0.5c1.4,1.4,3.8,1.4,5.2,0l1.7-1.7l-1.4-1.4l-1.4,1.4
		c-0.8,0.8-2.1,0.8-2.8,0s-0.8-2.1,0-2.8l5.9-5.9L-2.4,32L-8.5,38.2z"/>
</g>
<g class="st0">
	<path class="st1" d="M47.1,29c-1.4-1.4-3.8-1.4-5.2,0l-0.5,0.5c-1.4,1.4-1.4,3.8,0,5.2l1.7,1.7l1.4-1.4l-1.4-1.4
		c-0.8-0.8-0.8-2.1,0-2.8c0.8-0.8,2.1-0.8,2.8,0l5.9,5.9l1.4-1.4L47.1,29z"/>
	<path class="st1" d="M50.7,43.8c1.4,1.4,3.8,1.4,5.2,0l0.5-0.5c1.4-1.4,1.4-3.8,0-5.2l-1.7-1.7l-1.4,1.4l1.4,1.4
		c0.8,0.8,0.8,2.1,0,2.8s-2.1,0.8-2.8,0l-5.9-5.9l-1.4,1.4L50.7,43.8z"/>
	<path class="st1" d="M56.3,34.6c1.4-1.4,1.4-3.8,0-5.2L55.9,29c-1.4-1.4-3.8-1.4-5.2,0L49,30.6l1.4,1.4l1.4-1.4
		c0.8-0.8,2.1-0.8,2.8,0c0.8,0.8,0.8,2.1,0,2.8l-5.9,5.9l1.4,1.4L56.3,34.6z"/>
	<path class="st1" d="M41.5,38.2c-1.4,1.4-1.4,3.8,0,5.2l0.5,0.5c1.4,1.4,3.8,1.4,5.2,0l1.7-1.7l-1.4-1.4l-1.4,1.4
		c-0.8,0.8-2.1,0.8-2.8,0s-0.8-2.1,0-2.8l5.9-5.9L47.6,32L41.5,38.2z"/>
</g>
</svg>
