<?xml version="1.0" encoding="utf-8"?>
<!-- Generator: Adobe Illustrator 21.1.0, SVG Export Plug-In . SVG Version: 6.00 Build 0)  -->
<svg version="1.1" id="Layer_1" xmlns="http://www.w3.org/2000/svg" xmlns:xlink="http://www.w3.org/1999/xlink" x="0px" y="0px"
	 viewBox="0 0 800 600" style="enable-background:new 0 0 800 600;" xml:space="preserve">
<style type="text/css">
	.st0{fill:url(#SVGID_3_);}
	.st1{opacity:0.22;fill:url(#SVGID_4_);}
	.st2{fill:url(#SVGID_5_);}
</style>
<g>
	<defs>
		<rect id="SVGID_1_" x="38" y="24" width="722.9" height="375.6"/>
	</defs>
	<clipPath id="SVGID_2_">
		<use xlink:href="#SVGID_1_"  style="overflow:visible;"/>
	</clipPath>
	<g style="clip-path:url(#SVGID_2_);">
		
			<image style="overflow:visible;" width="1316" height="909" xlink:href="Project1.PNG"  transform="matrix(0.5493 0 0 0.6314 38.0342 24)">
		</image>
	</g>
</g>
<g>
	<linearGradient id="SVGID_3_" gradientUnits="userSpaceOnUse" x1="17" y1="453.1655" x2="784" y2="453.1655">
		<stop  offset="0.1564" style="stop-color:#9C9C9C"/>
		<stop  offset="0.4077" style="stop-color:#858585"/>
		<stop  offset="0.8231" style="stop-color:#FFFFFF"/>
		<stop  offset="1" style="stop-color:#7D7D7D"/>
	</linearGradient>
	<path class="st0" d="M28.5,482.5H320h452.5c6.3,0,11.5-3.9,11.5-8.6v-50.2H17v50.2C17,478.7,22.2,482.5,28.5,482.5z"/>
</g>
<g>
	<path d="M772.5,2h-744C22.2,2,17,7.9,17,15.1v408.7h767V15.1C784,7.9,778.8,2,772.5,2z M761.5,400.9H39.5v-376h721.9V400.9z"/>
</g>
<linearGradient id="SVGID_4_" gradientUnits="userSpaceOnUse" x1="894.8004" y1="107.2124" x2="502.0559" y2="499.9569">
	<stop  offset="0.4078" style="stop-color:#FFFFFF"/>
	<stop  offset="1" style="stop-color:#DADADA;stop-opacity:0.2"/>
</linearGradient>
<polygon class="st1" points="784,12.5 413,426.9 784,423.5 "/>
<linearGradient id="SVGID_5_" gradientUnits="userSpaceOnUse" x1="400.5" y1="599.0109" x2="400.5" y2="482.5445">
	<stop  offset="0.1564" style="stop-color:#9C9C9C"/>
	<stop  offset="0.4077" style="stop-color:#5B5B5B"/>
	<stop  offset="0.6692" style="stop-color:#F0F3F1"/>
	<stop  offset="1" style="stop-color:#222222"/>
</linearGradient>
<path class="st2" d="M495.5,568.3c-5.6-3.5-15.6-10.9-22.5-24.4c-14.3-28.1-2.4-57.6-0.8-61.4c-23.9,0-47.7,0-71.6,0
	c-0.1,0-0.2,0-0.3,0c-23.9,0-47.7,0-71.6,0c1.6,3.8,13.5,33.3-0.8,61.4c-6.9,13.5-16.9,20.9-22.5,24.4
	c-36.6,9.8-54.7,17.3-54.1,22.6c0.4,4.2,12.6,6.9,36.6,8.1c29.4,0,58.8,0,88.2,0c8,0,16.1,0,24.1,0h0.3c10.2,0,20.4,0,30.5,0
	c27.3,0,54.6,0,81.9,0c24-1.3,36.2-4,36.6-8.1C550.2,585.7,532.2,578.1,495.5,568.3z"/>
</svg>
